<svg width="459" height="462" viewBox="0 0 459 462" fill="none" xmlns="http://www.w3.org/2000/svg">
<path fill-rule="evenodd" clip-rule="evenodd" d="M172.253 461.96C133.457 461.96 97.62 455.949 65.2897 444.064C21.9852 428.127 -12.9407 402.399 -38.6684 367.61C-64.988 332.001 -80.197 287.695 -82.6559 239.427C-85.2059 189.11 -74.4595 136.379 -50.7354 82.6928C-29.2425 34.1973 14.4718 -37.2027 72.803 -92.1188C150.396 -165.204 234.682 -194.028 323.341 -177.771C485.174 -148.082 465.458 -27.0482 446.378 90.0241C441.278 121.171 436.041 153.41 434.584 182.78C430.987 256.138 410.177 320.617 374.477 369.249C336.819 420.431 283.952 451.441 221.659 458.909C204.72 460.958 188.236 461.96 172.253 461.96ZM275.801 -178.09C205.54 -178.09 138.42 -148.31 75.5807 -89.159C17.7048 -34.6527 -25.6907 36.2009 -47.0014 84.3321C-93.63 189.747 -89.3952 292.112 -35.3898 365.196C9.41732 425.804 81.9557 457.907 171.889 457.907C187.781 457.907 204.219 456.905 221.158 454.856C342.784 440.285 422.973 335.962 430.486 182.598C431.943 152.954 437.225 120.624 442.325 89.341C451.706 31.875 461.405 -27.5036 448.791 -75.225C434.675 -128.547 393.374 -160.787 322.566 -173.764C306.857 -176.633 291.238 -178.09 275.801 -178.09Z" fill="url(#paint0_linear_149_337)"/>
<path fill-rule="evenodd" clip-rule="evenodd" d="M158.774 434.501C121.981 434.501 88.0572 428.855 57.4572 417.562C16.4751 402.444 -16.675 378.128 -40.991 345.16C-65.9446 311.418 -80.3339 269.48 -82.7017 223.762C-85.1151 176.086 -74.9151 126.133 -52.4205 75.3154C-38.5321 43.9413 -14.3982 -1.00247 34.917 -29.1435C86.1447 -58.3319 153.811 -64.707 241.831 -48.5418C327.484 -32.832 373.065 -13.4793 394.239 16.21C415.049 45.3529 412.59 83.6939 409.175 136.743C408.492 147.353 407.809 158.373 407.217 170.121C403.802 239.608 384.13 300.672 350.297 346.708C314.597 395.204 264.554 424.574 205.539 431.632C189.511 433.545 173.892 434.501 158.774 434.501ZM155.131 -53.0953C27.5402 -53.0953 -20.9098 14.2065 -48.6866 76.9547C-92.8562 176.723 -88.8491 273.578 -37.7125 342.747C12.1492 410.231 98.3938 440.375 205.038 427.58C320.107 413.828 396.015 315.061 403.164 169.893C403.711 158.145 404.439 147.125 405.122 136.47C411.862 30.9636 414.639 -12.7052 241.103 -44.5346C209 -50.4543 180.495 -53.0953 155.131 -53.0953Z" fill="url(#paint1_linear_149_337)"/>
<path fill-rule="evenodd" clip-rule="evenodd" d="M145.341 403.992C111.371 403.992 79.9973 398.756 51.674 388.328C13.7883 374.394 -16.8572 351.854 -39.3519 321.391C-62.3929 290.199 -75.7349 251.402 -77.8751 209.145C-80.1063 165.066 -70.7259 118.893 -49.9161 71.9004C-37.075 42.8941 -14.7626 1.36552 30.8642 -24.6354C78.2214 -51.6836 140.787 -57.5577 222.114 -42.622C301.301 -28.0961 343.467 -10.2005 363.047 17.303C382.263 44.2602 380.032 79.687 376.89 128.729C376.253 138.565 375.615 148.719 375.069 159.557C371.927 223.808 353.712 280.272 322.429 322.802C289.462 367.655 243.152 394.794 188.6 401.351C173.755 403.127 159.32 403.992 145.341 403.992ZM142.017 -46.4925C24.1705 -46.4925 -20.5456 15.6182 -46.1822 73.5396C-86.9822 165.658 -83.2938 255.136 -36.0733 318.977C10.0089 381.27 89.6053 409.092 188.099 397.299C294.334 384.594 364.413 293.432 371.016 159.374C371.517 148.491 372.2 138.337 372.792 128.501C379.03 31.1003 381.58 -9.24431 221.386 -38.6148C191.742 -44.0336 165.422 -46.4925 142.017 -46.4925Z" fill="url(#paint2_linear_149_337)"/>
<path fill-rule="evenodd" clip-rule="evenodd" d="M131.954 373.483C100.716 373.483 71.9376 368.702 45.9367 359.094C11.1019 346.298 -16.9937 325.58 -37.6669 297.621C-58.8865 268.979 -71.0901 233.324 -73.0937 194.528C-75.1428 154.047 -66.491 111.653 -47.4115 68.485C-35.6178 41.8921 -15.1267 3.73317 26.7662 -20.1731C70.2983 -44.99 127.719 -50.4088 202.397 -36.7025C275.118 -23.3606 313.869 -6.87664 331.855 18.3501C349.523 43.1671 347.429 75.6796 344.56 120.76C344.013 129.73 343.376 139.065 342.921 149.038C340.006 208.006 323.295 259.826 294.562 298.896C264.28 340.105 221.75 365.059 171.615 371.07C158 372.709 144.795 373.483 131.954 373.483ZM128.903 -39.9356C20.8465 -39.9356 -20.1812 17.0296 -43.6776 70.1698C-81.0624 154.639 -77.6928 236.648 -34.3883 295.207C1.4483 343.748 59.5519 369.43 131.635 369.43C144.385 369.43 157.56 368.626 171.16 367.017C268.561 355.36 332.812 271.756 338.822 148.856C339.323 138.838 339.915 129.503 340.507 120.487C346.199 31.1912 348.567 -5.73826 201.669 -32.6954C174.53 -37.6588 150.35 -39.9356 128.903 -39.9356Z" fill="url(#paint3_linear_149_337)"/>
<path fill-rule="evenodd" clip-rule="evenodd" d="M118.521 342.974C90.1065 342.974 63.8324 338.603 40.1538 329.86C8.46093 318.203 -17.1757 299.351 -36.0275 273.851C-76.281 219.39 -79.5141 143.3 -44.9069 65.1152C-34.1605 40.8447 -15.4453 6.05542 22.7136 -15.7106C62.3752 -38.2964 114.696 -43.2598 182.726 -30.7374C319.834 -5.60172 317.466 31.4643 312.275 112.746C311.729 120.942 311.182 129.412 310.727 138.473C308.131 192.205 292.877 239.426 266.694 275.035C239.099 312.556 200.348 335.279 154.676 340.788C142.29 342.246 130.223 342.974 118.521 342.974ZM115.743 -33.333C17.5225 -33.333 -19.7712 18.4867 -41.173 66.7545C-75.1882 143.573 -72.0918 218.161 -32.7489 271.438C5.6377 323.348 72.0288 346.526 154.175 336.736C242.742 326.126 301.164 250.081 306.674 138.291C307.13 129.184 307.676 120.714 308.177 112.472C313.368 31.3278 315.508 -2.23208 181.952 -26.7303C157.272 -31.2839 135.278 -33.333 115.743 -33.333Z" fill="url(#paint4_linear_149_337)"/>
<path fill-rule="evenodd" clip-rule="evenodd" d="M104.814 312.511C44.525 312.511 -4.19823 290.881 -34.3884 250.081C-70.6804 200.948 -73.6402 132.281 -42.4027 61.7002C-32.7036 39.7975 -15.8098 8.42341 18.6607 -11.248C54.4062 -31.648 101.627 -36.065 163.009 -24.8177C286.775 -2.14087 284.635 31.3734 279.945 104.731C279.489 112.154 278.988 119.758 278.579 127.955C276.211 176.405 262.459 219.026 238.871 251.129C213.918 285.007 178.946 305.544 137.737 310.462C126.444 311.828 115.47 312.511 104.814 312.511ZM102.629 -26.7302C14.1527 -26.7302 -19.4072 19.8984 -38.6688 63.3395C-69.2688 132.554 -66.5366 199.719 -31.0643 247.668C3.4973 294.388 63.2402 315.289 137.236 306.409C216.969 296.892 269.562 228.406 274.526 127.727C274.936 119.531 275.391 111.881 275.892 104.458C280.537 31.4645 282.495 1.22877 162.28 -20.8105C140.013 -24.9087 120.251 -26.7302 102.629 -26.7302Z" fill="url(#paint5_linear_149_337)"/>
<path fill-rule="evenodd" clip-rule="evenodd" d="M91.4268 282.002C37.6491 282.002 -5.79191 262.695 -32.7035 226.312C-65.1249 182.461 -67.7205 121.216 -39.8526 58.2852C-31.2464 38.7959 -16.1741 10.7914 14.5625 -6.73982C46.4831 -24.9541 88.6036 -28.9157 143.292 -18.8978C253.716 1.36555 251.804 31.237 247.66 96.7629C247.205 103.32 246.795 110.15 246.43 117.391C244.29 160.604 232.041 198.581 211.004 227.223C188.737 257.458 157.545 275.764 120.752 280.181C110.688 281.41 100.898 282.002 91.4268 282.002ZM89.5143 -20.1729C10.8286 -20.1729 -19.0428 21.3102 -36.1187 59.97C-63.3946 121.489 -60.9357 181.232 -29.4249 223.899C1.31166 265.473 54.4973 284.006 120.296 276.128C191.196 267.658 237.961 206.732 242.332 117.208C242.696 109.923 243.152 103.092 243.562 96.4897C247.705 31.6013 249.436 4.73519 142.563 -14.8907C122.755 -18.5336 105.179 -20.1729 89.5143 -20.1729Z" fill="url(#paint6_linear_149_337)"/>
<path fill-rule="evenodd" clip-rule="evenodd" d="M78.9498 251.402C31.6382 251.402 -7.61359 234.189 -31.0645 202.542C-59.5243 163.973 -61.8466 110.196 -37.3484 54.9154C-29.7439 37.7484 -16.5386 13.1591 10.5096 -2.27748C38.5596 -18.2605 75.5346 -21.7668 123.62 -12.9784C220.702 4.87163 219.018 31.1457 215.329 88.7484C214.965 94.4404 214.601 100.497 214.282 106.872C212.415 144.803 201.623 178.181 183.135 203.362C163.601 229.909 136.143 246.029 103.812 249.899C95.2971 250.901 87.0096 251.402 78.9498 251.402ZM76.3998 -13.5704C7.50427 -13.5704 -18.6332 22.7216 -33.6145 56.5546C-57.4752 110.469 -55.335 162.789 -27.7859 200.083C-0.874298 236.512 45.7087 252.723 103.357 245.847C165.377 238.424 206.359 185.102 210.184 106.644C210.502 100.269 210.912 94.2127 211.277 88.4752C214.874 31.6921 216.377 8.19572 122.846 -8.92571C105.497 -12.1132 90.106 -13.5704 76.3998 -13.5704Z" fill="url(#paint7_linear_149_337)"/>
<path fill-rule="evenodd" clip-rule="evenodd" d="M65.4261 220.893C24.6717 220.893 -9.20692 206.048 -29.3792 178.773C-53.9685 145.532 -55.9266 99.1306 -34.8435 51.5003C-18.8605 15.3449 11.3752 -23.9979 103.904 -7.01312C187.644 8.33241 186.187 31.0092 182.999 80.7342C182.726 85.652 182.362 90.8431 182.089 96.3074C178.719 165.749 142.199 212.97 86.8734 219.618C79.5422 220.483 72.3931 220.893 65.4261 220.893ZM63.2404 -6.9676C4.13505 -6.9676 -18.2685 24.1333 -31.1096 53.1395C-51.6007 99.4038 -49.7792 144.302 -26.1007 176.314C-3.01406 207.551 36.9208 221.485 86.3725 215.565C139.604 209.19 174.712 163.427 178.036 96.1253C178.309 90.6154 178.628 85.4244 178.947 80.461C182.043 31.8288 183.364 11.702 103.175 -3.00599C88.2395 -5.73813 75.0342 -6.9676 63.2404 -6.9676Z" fill="url(#paint8_linear_149_337)"/>
<path fill-rule="evenodd" clip-rule="evenodd" d="M51.9018 190.43C17.7045 190.43 -10.7554 177.953 -27.7402 154.957C-48.3679 127.044 -50.0527 88.111 -32.3393 48.1306C-18.8607 17.7127 6.50269 -15.3462 84.1866 -1.09349C154.585 11.8386 153.401 30.9181 150.714 72.7199C150.441 76.8636 150.168 81.1896 149.94 85.7887C147.071 144.074 116.426 183.736 69.9339 189.291C63.7866 190.065 57.7759 190.43 51.9018 190.43ZM50.1259 -0.410458C0.810707 -0.410458 -17.9045 25.5449 -28.6054 49.7699C-45.6812 88.3842 -44.1786 125.86 -24.4616 152.544C-5.2 178.59 28.1321 190.202 69.433 185.284C113.83 179.957 143.11 141.752 145.888 85.561C146.115 80.9619 146.388 76.5904 146.616 72.4922C149.303 30.7815 150.304 15.2083 83.458 2.91364C71.0268 0.636858 59.9616 -0.410458 50.1259 -0.410458Z" fill="url(#paint9_linear_149_337)"/>
<path fill-rule="evenodd" clip-rule="evenodd" d="M38.4232 159.921C10.692 159.921 -12.3036 149.812 -26.0554 131.188C-42.767 108.602 -44.133 77.0911 -29.8348 44.7152C-19.7714 21.9929 0.9473 -6.83119 64.4696 4.82596C121.571 15.2992 120.57 30.7813 118.384 64.7509C118.202 68.0295 117.974 71.5358 117.792 75.2242C115.47 122.399 90.6527 154.502 52.9491 159.01C47.9705 159.617 43.1286 159.921 38.4232 159.921ZM37.0116 6.19203C-2.51341 6.19203 -17.4946 27.0018 -26.1009 46.3545C-39.8071 77.3643 -38.6232 107.372 -22.7768 128.774C-7.38573 149.63 19.3437 158.919 52.4937 154.957C88.0571 150.722 111.508 120.077 113.694 75.042C113.876 71.3081 114.104 67.8018 114.331 64.4777C116.471 31.1456 117.246 18.6688 63.7411 8.87865C53.7687 7.01168 44.8893 6.19203 37.0116 6.19203Z" fill="url(#paint10_linear_149_337)"/>
<path fill-rule="evenodd" clip-rule="evenodd" d="M24.8993 129.412C3.72521 129.412 -13.8971 121.671 -24.4159 107.418C-37.2114 90.1145 -38.2587 66.0261 -27.3301 41.3002C-19.6346 23.9511 -3.78818 1.86625 44.7984 10.7913C88.5127 18.8055 87.693 31.4645 86.0993 56.7368C85.9172 59.2413 85.7805 61.8823 85.6439 64.7055C83.868 100.724 64.8341 125.268 36.01 128.729C32.2154 129.184 28.5118 129.412 24.8993 129.412ZM23.852 12.7948C-5.88282 12.7948 -17.1301 28.4136 -23.5962 42.9395C-33.9328 66.2993 -33.0221 88.9305 -21.1373 105.005C-9.5257 120.669 10.6011 127.681 35.5091 124.676C62.2386 121.489 79.9064 98.402 81.5457 64.4779C81.6823 61.6547 81.8645 59.0136 82.0011 56.4636C83.5948 31.51 84.2323 22.1752 44.0243 14.7984C36.5109 13.4323 29.8172 12.7948 23.852 12.7948Z" fill="url(#paint11_linear_149_337)"/>
<path d="M221.659 458.909L221.158 454.857C342.784 440.285 422.973 335.963 430.486 182.599C431.943 152.955 437.225 120.625 442.325 89.3415C451.706 31.8754 461.405 -27.5031 448.791 -75.2246C434.675 -128.547 393.374 -160.786 322.566 -173.764L323.34 -177.771C485.174 -148.082 465.457 -27.0478 446.378 90.0245C441.278 121.171 436.041 153.41 434.584 182.781C430.987 256.139 410.177 320.617 374.477 369.25C336.819 420.432 283.952 451.441 221.659 458.909Z" fill="url(#paint12_linear_149_337)"/>
<defs>
<linearGradient id="paint0_linear_149_337" x1="414.647" y1="-48.0322" x2="-218.19" y2="545.293" gradientUnits="userSpaceOnUse">
<stop stop-color="#FF7A00"/>
<stop offset="0.903882" stop-color="#FF001F" stop-opacity="0.85"/>
</linearGradient>
<linearGradient id="paint1_linear_149_337" x1="371.048" y1="45.1777" x2="-109.936" y2="584.18" gradientUnits="userSpaceOnUse">
<stop stop-color="#FF7A00"/>
<stop offset="0.903882" stop-color="#FF001F" stop-opacity="0.85"/>
</linearGradient>
<linearGradient id="paint2_linear_149_337" x1="341.619" y1="44.0332" x2="-103.091" y2="542.35" gradientUnits="userSpaceOnUse">
<stop stop-color="#FF7A00"/>
<stop offset="0.903882" stop-color="#FF001F" stop-opacity="0.85"/>
</linearGradient>
<linearGradient id="paint3_linear_149_337" x1="312.167" y1="42.8956" x2="-96.2562" y2="500.546" gradientUnits="userSpaceOnUse">
<stop stop-color="#FF7A00"/>
<stop offset="0.903882" stop-color="#FF001F" stop-opacity="0.85"/>
</linearGradient>
<linearGradient id="paint4_linear_149_337" x1="282.736" y1="41.7678" x2="-89.3678" y2="458.924" gradientUnits="userSpaceOnUse">
<stop stop-color="#FF7A00"/>
<stop offset="0.903882" stop-color="#FF001F" stop-opacity="0.85"/>
</linearGradient>
<linearGradient id="paint5_linear_149_337" x1="253.29" y1="40.6471" x2="-82.5707" y2="417.117" gradientUnits="userSpaceOnUse">
<stop stop-color="#FF7A00"/>
<stop offset="0.903882" stop-color="#FF001F" stop-opacity="0.85"/>
</linearGradient>
<linearGradient id="paint6_linear_149_337" x1="223.868" y1="39.5115" x2="-75.7054" y2="375.301" gradientUnits="userSpaceOnUse">
<stop stop-color="#FF7A00"/>
<stop offset="0.903882" stop-color="#FF001F" stop-opacity="0.85"/>
</linearGradient>
<linearGradient id="paint7_linear_149_337" x1="194.44" y1="38.355" x2="-68.7487" y2="333.462" gradientUnits="userSpaceOnUse">
<stop stop-color="#FF7A00"/>
<stop offset="0.903882" stop-color="#FF001F" stop-opacity="0.85"/>
</linearGradient>
<linearGradient id="paint8_linear_149_337" x1="164.994" y1="37.2225" x2="-61.9047" y2="291.63" gradientUnits="userSpaceOnUse">
<stop stop-color="#FF7A00"/>
<stop offset="0.903882" stop-color="#FF001F" stop-opacity="0.85"/>
</linearGradient>
<linearGradient id="paint9_linear_149_337" x1="135.586" y1="36.0872" x2="-55.0847" y2="249.851" gradientUnits="userSpaceOnUse">
<stop stop-color="#FF7A00"/>
<stop offset="0.903882" stop-color="#FF001F" stop-opacity="0.85"/>
</linearGradient>
<linearGradient id="paint10_linear_149_337" x1="106.145" y1="35.0045" x2="-48.1691" y2="208.051" gradientUnits="userSpaceOnUse">
<stop stop-color="#FF7A00"/>
<stop offset="0.903882" stop-color="#FF001F" stop-opacity="0.85"/>
</linearGradient>
<linearGradient id="paint11_linear_149_337" x1="76.7059" y1="33.8716" x2="-41.3155" y2="166.25" gradientUnits="userSpaceOnUse">
<stop stop-color="#FF7A00"/>
<stop offset="0.903882" stop-color="#FF001F" stop-opacity="0.85"/>
</linearGradient>
<linearGradient id="paint12_linear_149_337" x1="439.501" y1="-45.1823" x2="-5.18799" y2="139.876" gradientUnits="userSpaceOnUse">
<stop stop-color="#FF7A00"/>
<stop offset="0.903882" stop-color="#FF001F" stop-opacity="0.85"/>
</linearGradient>
</defs>
</svg>
