<svg width="192" height="149" viewBox="0 0 192 149" fill="none" xmlns="http://www.w3.org/2000/svg">
<path fill-rule="evenodd" clip-rule="evenodd" d="M80.0196 148.578C64.9955 148.578 51.1176 146.25 38.5975 141.647C21.8276 135.476 8.30239 125.512 -1.66078 112.04C-11.8532 98.2503 -17.7429 81.0925 -18.6951 62.4005C-19.6826 42.9151 -15.521 22.495 -6.33377 1.70457C1.98944 -17.0756 18.918 -44.7256 41.5071 -65.9921C71.5553 -94.2945 104.196 -105.457 138.529 -99.1615C201.2 -87.6642 193.564 -40.7932 186.176 4.54362C184.201 16.6052 182.173 29.0901 181.609 40.464C180.216 68.8722 172.157 93.8418 158.332 112.675C143.749 132.495 123.276 144.504 99.1524 147.396C92.5926 148.19 86.2091 148.578 80.0196 148.578ZM120.119 -99.2849C92.91 -99.2849 66.9176 -87.7524 42.5828 -64.8459C20.17 -43.7381 3.36489 -16.2997 -4.88778 2.33939C-22.9449 43.1619 -21.305 82.803 -0.391132 111.105C16.9607 134.576 45.0515 147.008 79.8785 147.008C86.0328 147.008 92.3986 146.62 98.9584 145.827C146.059 140.184 177.112 99.7845 180.022 40.3934C180.586 28.9137 182.631 16.3936 184.606 4.27912C188.239 -17.9749 191.995 -40.9695 187.11 -59.4499C181.644 -80.0992 165.65 -92.5841 138.229 -97.6097C132.145 -98.7207 126.097 -99.2849 120.119 -99.2849Z" fill="url(#paint0_linear_1_103)"/>
<path fill-rule="evenodd" clip-rule="evenodd" d="M74.7998 137.944C60.5516 137.944 47.4143 135.757 35.5643 131.384C19.6937 125.53 6.85625 116.113 -2.56027 103.346C-12.2237 90.2795 -17.796 74.0387 -18.7129 56.3342C-19.6475 37.8715 -15.6975 18.527 -6.98638 -1.15243C-1.60803 -13.3022 7.73795 -30.7069 26.8355 -41.6047C46.6737 -52.908 72.8777 -55.3768 106.964 -49.1167C140.133 -43.033 157.785 -35.5386 165.985 -24.0413C174.044 -12.7556 173.091 2.0922 171.769 22.6357C171.504 26.7444 171.24 31.0118 171.011 35.5614C169.688 62.4708 162.07 86.1179 148.968 103.946C135.143 122.726 115.763 134.1 92.9098 136.833C86.7027 137.574 80.6542 137.944 74.7998 137.944ZM73.3891 -50.8801C23.9788 -50.8801 5.21629 -24.8172 -5.54041 -0.517612C-22.6453 38.1183 -21.0935 75.6257 -1.29062 102.412C18.0185 128.545 51.4172 140.219 92.7159 135.264C137.277 129.938 166.673 91.6902 169.441 35.4732C169.653 30.9237 169.935 26.6563 170.199 22.5299C172.809 -18.3279 173.885 -35.2388 106.682 -47.5649C94.25 -49.8574 83.2112 -50.8801 73.3891 -50.8801Z" fill="url(#paint1_linear_1_103)"/>
<path fill-rule="evenodd" clip-rule="evenodd" d="M69.5978 126.129C56.4428 126.129 44.2931 124.101 33.3248 120.063C18.6533 114.667 6.78571 105.939 -1.92545 94.1414C-10.8482 82.0622 -16.015 67.0381 -16.8437 50.6738C-17.7078 33.6041 -14.0752 15.7234 -6.01651 -2.47485C-1.04375 -13.7077 7.59687 -29.7898 25.2661 -39.8588C43.6054 -50.3333 67.8344 -52.6081 99.3286 -46.8242C129.994 -41.199 146.323 -34.2688 153.906 -23.6179C161.347 -13.1786 160.483 0.540539 159.266 19.5323C159.019 23.3412 158.773 27.2736 158.561 31.4705C157.344 56.3519 150.291 78.218 138.176 94.6881C125.409 112.058 107.475 122.567 86.35 125.107C80.6013 125.794 75.0114 126.129 69.5978 126.129ZM68.3105 -48.3231C22.6739 -48.3231 5.35736 -24.2704 -4.57054 -1.84003C-20.3705 33.8334 -18.9422 68.4841 -0.655807 93.2068C17.1897 117.33 48.0138 128.104 86.156 123.537C127.296 118.617 154.435 83.3142 156.992 31.3999C157.185 27.1854 157.45 23.253 157.679 19.4441C160.095 -18.2749 161.083 -33.8985 99.0464 -45.2724C87.5667 -47.3708 77.3743 -48.3231 68.3105 -48.3231Z" fill="url(#paint2_linear_1_103)"/>
<path fill-rule="evenodd" clip-rule="evenodd" d="M64.4134 114.315C52.3165 114.315 41.1719 112.463 31.1029 108.742C17.6129 103.787 6.73281 95.7637 -1.27299 84.9365C-9.49041 73.8448 -14.2163 60.0374 -14.9922 45.0133C-15.7857 29.3367 -12.4353 12.9196 -5.04665 -3.7974C-0.479462 -14.0956 7.4558 -28.8729 23.679 -38.1307C40.5371 -47.7412 62.7734 -49.8396 91.6931 -44.5318C119.854 -39.365 134.861 -32.9816 141.826 -23.2124C148.668 -13.6019 147.857 -1.01125 146.746 16.4463C146.535 19.9202 146.288 23.5352 146.111 27.397C144.983 50.2329 138.511 70.3004 127.384 85.4303C115.658 101.389 99.1875 111.052 79.7726 113.38C74.5 114.015 69.3862 114.315 64.4134 114.315ZM63.2319 -45.7838C21.3866 -45.7838 5.49843 -23.7237 -3.60068 -3.14495C-18.0781 29.566 -16.7732 61.3247 -0.0033493 84.0019C13.8746 102.8 36.3754 112.745 64.29 112.745C69.2275 112.745 74.3295 112.434 79.5962 111.811C117.315 107.296 142.197 74.9205 144.524 27.3265C144.718 23.447 144.948 19.8321 145.177 16.3405C147.381 -18.2396 148.298 -32.5407 91.4109 -42.98C80.9011 -44.9021 71.5375 -45.7838 63.2319 -45.7838Z" fill="url(#paint3_linear_1_103)"/>
<path fill-rule="evenodd" clip-rule="evenodd" d="M59.2114 102.5C48.2078 102.5 38.033 100.807 28.8634 97.4213C16.5902 92.907 6.66229 85.6066 -0.638156 75.7316C-16.2265 54.6414 -17.4786 25.1751 -4.07677 -5.10236C0.0848351 -14.5012 7.33238 -27.9736 22.1096 -36.4026C37.4688 -45.149 57.7301 -47.0711 84.0752 -42.2218C137.171 -32.4878 136.254 -18.1338 134.244 13.3427C134.032 16.5168 133.821 19.7968 133.644 23.3059C132.639 44.1139 126.732 62.4003 116.592 76.1901C105.906 90.7204 90.8996 99.5198 73.2127 101.653C68.4163 102.218 63.7433 102.5 59.2114 102.5ZM58.1357 -43.2269C20.0993 -43.2269 5.65715 -23.1595 -2.6308 -4.46754C-15.8033 25.2809 -14.6042 54.1653 0.631478 74.797C15.4969 94.8997 41.2071 103.875 73.0188 100.084C107.317 95.9753 129.941 66.5267 132.075 23.2354C132.251 19.7086 132.463 16.4287 132.657 13.2369C134.667 -18.1867 135.496 -31.1829 83.7754 -40.67C74.2179 -42.4334 65.7007 -43.2269 58.1357 -43.2269Z" fill="url(#paint4_linear_1_103)"/>
<path fill-rule="evenodd" clip-rule="evenodd" d="M53.9036 90.7027C30.5562 90.7027 11.6879 82.3266 -0.00335407 66.5266C-14.0576 47.4996 -15.2038 20.9076 -3.10692 -6.42495C0.649106 -14.9069 7.19129 -27.0566 20.5402 -34.6745C34.3828 -42.5745 52.6692 -44.285 76.4397 -39.9294C124.369 -31.1477 123.54 -18.1691 121.724 10.2391C121.547 13.1134 121.353 16.0583 121.195 19.2324C120.278 37.9949 114.952 54.5003 105.818 66.9322C96.1545 80.0518 82.6116 88.0047 66.6529 89.9092C62.2797 90.4382 58.0299 90.7027 53.9036 90.7027ZM53.0571 -40.67C18.7944 -40.67 5.7982 -22.6129 -1.66095 -5.79013C-13.5109 21.0134 -12.4529 47.0235 1.28392 65.592C14.6681 83.6844 37.8038 91.7784 66.4589 88.3398C97.3359 84.6543 117.703 58.1329 119.625 19.1442C119.784 15.9701 119.96 13.0076 120.154 10.1333C121.953 -18.1339 122.711 -29.8428 76.1576 -38.3776C67.5346 -39.9647 59.8815 -40.67 53.0571 -40.67Z" fill="url(#paint5_linear_1_103)"/>
<path fill-rule="evenodd" clip-rule="evenodd" d="M48.7192 78.8879C27.8935 78.8879 11.0708 71.4111 0.649115 57.3216C-11.9062 40.3402 -12.9114 16.6225 -2.11941 -7.74756C1.2134 -15.2949 7.05023 -26.1398 18.9531 -32.9288C31.3145 -39.9824 47.6259 -41.5165 68.8042 -37.6371C111.567 -29.79 110.826 -18.2221 109.221 7.15311C109.045 9.69239 108.886 12.3375 108.745 15.1413C107.916 31.8759 103.173 46.5826 95.0259 57.6743C86.4029 69.3832 74.3237 76.4721 60.0754 78.1826C56.1783 78.6587 52.3871 78.8879 48.7192 78.8879ZM47.9786 -38.1308C17.5071 -38.1308 5.93929 -22.0663 -0.67343 -7.09512C-11.2362 16.7283 -10.2839 39.864 1.91876 56.387C13.8217 72.4868 34.4181 79.6638 59.8991 76.6132C87.3551 73.3333 105.465 49.7391 107.158 15.0707C107.299 12.2493 107.475 9.60423 107.634 7.04731C109.239 -18.081 109.909 -28.4851 68.5221 -36.0853C60.8513 -37.496 54.0446 -38.1308 47.9786 -38.1308Z" fill="url(#paint6_linear_1_103)"/>
<path fill-rule="evenodd" clip-rule="evenodd" d="M43.8875 67.0379C25.5659 67.0379 10.3654 60.3723 1.28393 48.1167C-9.73727 33.1808 -10.6366 12.3551 -1.14955 -9.05247C1.79532 -15.7005 6.90915 -25.2228 17.3837 -31.2007C28.2462 -37.3902 42.565 -38.748 61.1864 -35.3447C98.7819 -28.4322 98.1295 -18.2574 96.7011 4.04955C96.56 6.25379 96.419 8.59909 96.2955 11.0678C95.5725 25.7569 91.3933 38.6826 84.2339 48.4341C76.669 58.7147 66.0357 64.9571 53.5156 66.456C50.2181 66.8439 47.0087 67.0379 43.8875 67.0379ZM42.9 -35.5739C16.2199 -35.5739 6.098 -21.5197 0.296436 -8.41765C-8.94374 12.4609 -8.11495 32.7223 2.55358 47.1645C12.9752 61.2717 31.0147 67.5493 53.3393 64.8866C77.3567 62.0123 93.2272 41.3629 94.7085 10.9797C94.8319 8.51092 94.9906 6.1656 95.1317 3.94373C96.5248 -18.0458 97.1067 -27.1449 60.8866 -33.7752C54.1681 -35.0096 48.2078 -35.5739 42.9 -35.5739Z" fill="url(#paint7_linear_1_103)"/>
<path fill-rule="evenodd" clip-rule="evenodd" d="M38.6502 55.2233C22.8679 55.2233 9.74822 49.4746 1.93639 38.9119C-7.58593 26.0391 -8.34419 8.07017 -0.179682 -10.3749C6.00983 -24.3763 17.7188 -39.612 53.5509 -33.0345C85.9797 -27.0919 85.4154 -18.3102 84.181 0.946053C84.0752 2.85051 83.9342 4.86079 83.8284 6.97687C82.5234 33.8686 68.381 52.155 46.9558 54.7295C44.1167 55.0646 41.3482 55.2233 38.6502 55.2233ZM37.8038 -33.0169C14.915 -33.0169 6.23907 -20.9729 1.2663 -9.7401C-6.66897 8.17596 -5.96361 25.563 3.20603 37.9597C12.1464 50.0565 27.6114 55.4525 46.7618 53.1601C67.3759 50.6914 80.9717 32.9693 82.2589 6.90633C82.3647 4.77262 82.4882 2.76235 82.6116 0.840252C83.8107 -17.9928 84.3221 -25.787 53.2687 -31.4827C47.4848 -32.5408 42.371 -33.0169 37.8038 -33.0169Z" fill="url(#paint8_linear_1_103)"/>
<path fill-rule="evenodd" clip-rule="evenodd" d="M33.4129 43.4262C20.1699 43.4262 9.14865 38.5945 2.5712 29.6894C-5.41697 18.8798 -6.06942 3.80276 0.790174 -11.6798C6.00982 -23.4593 15.8319 -36.2615 45.9154 -30.7421C73.1775 -25.7341 72.719 -18.3455 71.6786 -2.15751C71.5728 -0.552824 71.467 1.12241 71.3788 2.90344C70.2679 25.4749 58.4002 40.834 40.396 42.9853C38.0154 43.2851 35.6877 43.4262 33.4129 43.4262ZM32.7252 -30.4776C13.6277 -30.4776 6.38013 -20.4263 2.23616 -11.045C-4.37657 3.90855 -3.79465 18.4213 3.84084 28.7548C11.3 38.8414 24.208 43.338 40.202 41.4336C57.3951 39.3704 68.7337 24.5755 69.8094 2.81527C69.8975 1.03424 70.0033 -0.658627 70.0915 -2.24568C71.1319 -18.3984 71.5199 -24.4292 45.6333 -29.1903C40.8192 -30.072 36.5341 -30.4776 32.7252 -30.4776Z" fill="url(#paint9_linear_1_103)"/>
<path fill-rule="evenodd" clip-rule="evenodd" d="M28.1933 31.6115C17.4542 31.6115 8.5491 27.6967 3.22366 20.4845C-3.248 11.738 -3.77701 -0.464649 1.76004 -13.0024C5.65714 -21.8017 13.6806 -32.964 38.2799 -28.4497C60.3929 -24.3939 60.0049 -18.3984 59.1585 -5.24344C59.0879 -3.9738 58.9998 -2.61599 58.9292 -1.18764C58.0299 17.0811 48.4194 29.513 33.8185 31.2588C31.8905 31.4939 30.0155 31.6115 28.1933 31.6115ZM27.6466 -27.9207C12.3404 -27.9207 6.53884 -19.862 3.20603 -12.3676C-2.10179 -0.35885 -1.64331 11.2619 4.4933 19.5499C10.4536 27.6262 20.8047 31.2235 33.6422 29.6894C47.4143 28.0494 56.4958 16.1818 57.3422 -1.25818C57.4127 -2.70416 57.5009 -4.06197 57.5891 -5.34924C58.4178 -18.2573 58.7176 -23.089 37.9978 -26.8803C34.1359 -27.6033 30.6973 -27.9207 27.6466 -27.9207Z" fill="url(#paint10_linear_1_103)"/>
<path fill-rule="evenodd" clip-rule="evenodd" d="M22.956 19.7968C14.7563 19.7968 7.93193 16.799 3.85849 11.2796C-1.09664 4.57872 -1.50222 -4.74964 2.72992 -14.3249C5.71005 -21.0434 11.8467 -29.5958 30.6621 -26.1396C47.5906 -23.036 47.2732 -18.1338 46.656 -8.34696C46.5855 -7.37709 46.5326 -6.35432 46.4797 -5.26102C45.792 8.68742 38.421 18.1921 27.2587 19.5323C25.7892 19.7086 24.355 19.7968 22.956 19.7968ZM22.5505 -25.3637C11.0355 -25.3637 6.67992 -19.3153 4.1759 -13.69C0.173001 -4.64384 0.525673 4.12023 5.12813 10.345C9.62478 16.4111 17.419 19.1267 27.0647 17.9629C37.4159 16.7285 44.2578 7.78809 44.8926 -5.34919C44.9455 -6.44249 45.0161 -7.46526 45.069 -8.45276C45.6862 -18.1161 45.933 -21.7311 30.3623 -24.5878C27.4527 -25.1168 24.8605 -25.3637 22.5505 -25.3637Z" fill="url(#paint11_linear_1_103)"/>
<path d="M99.1523 147.396L98.9583 145.827C146.059 140.184 177.112 99.7849 180.021 40.3938C180.586 28.9141 182.631 16.394 184.606 4.27949C188.239 -17.9745 191.995 -40.9692 187.11 -59.4495C181.644 -80.0989 165.65 -92.5837 138.229 -97.6093L138.529 -99.1611C201.2 -87.6638 193.564 -40.7928 186.176 4.544C184.201 16.6056 182.173 29.0904 181.609 40.4643C180.215 68.8726 172.157 93.8422 158.332 112.675C143.748 132.496 123.275 144.504 99.1523 147.396Z" fill="url(#paint12_linear_1_103)"/>
<defs>
<linearGradient id="paint0_linear_1_103" x1="173.888" y1="-48.9193" x2="-71.1814" y2="180.849" gradientUnits="userSpaceOnUse">
<stop stop-color="#FF7A00"/>
<stop offset="0.903882" stop-color="#FF001F" stop-opacity="0.85"/>
</linearGradient>
<linearGradient id="paint1_linear_1_103" x1="157.004" y1="-12.8234" x2="-29.2595" y2="195.908" gradientUnits="userSpaceOnUse">
<stop stop-color="#FF7A00"/>
<stop offset="0.903882" stop-color="#FF001F" stop-opacity="0.85"/>
</linearGradient>
<linearGradient id="paint2_linear_1_103" x1="145.607" y1="-13.2665" x2="-26.6086" y2="179.709" gradientUnits="userSpaceOnUse">
<stop stop-color="#FF7A00"/>
<stop offset="0.903882" stop-color="#FF001F" stop-opacity="0.85"/>
</linearGradient>
<linearGradient id="paint3_linear_1_103" x1="134.202" y1="-13.707" x2="-23.962" y2="163.52" gradientUnits="userSpaceOnUse">
<stop stop-color="#FF7A00"/>
<stop offset="0.903882" stop-color="#FF001F" stop-opacity="0.85"/>
</linearGradient>
<linearGradient id="paint4_linear_1_103" x1="122.805" y1="-14.1438" x2="-21.2945" y2="147.402" gradientUnits="userSpaceOnUse">
<stop stop-color="#FF7A00"/>
<stop offset="0.903882" stop-color="#FF001F" stop-opacity="0.85"/>
</linearGradient>
<linearGradient id="paint5_linear_1_103" x1="111.401" y1="-14.5779" x2="-18.6622" y2="131.212" gradientUnits="userSpaceOnUse">
<stop stop-color="#FF7A00"/>
<stop offset="0.903882" stop-color="#FF001F" stop-opacity="0.85"/>
</linearGradient>
<linearGradient id="paint6_linear_1_103" x1="100.008" y1="-15.0177" x2="-16.0036" y2="115.018" gradientUnits="userSpaceOnUse">
<stop stop-color="#FF7A00"/>
<stop offset="0.903882" stop-color="#FF001F" stop-opacity="0.85"/>
</linearGradient>
<linearGradient id="paint7_linear_1_103" x1="88.6115" y1="-15.4655" x2="-13.3095" y2="98.8159" gradientUnits="userSpaceOnUse">
<stop stop-color="#FF7A00"/>
<stop offset="0.903882" stop-color="#FF001F" stop-opacity="0.85"/>
</linearGradient>
<linearGradient id="paint8_linear_1_103" x1="77.2084" y1="-15.904" x2="-10.6593" y2="82.6167" gradientUnits="userSpaceOnUse">
<stop stop-color="#FF7A00"/>
<stop offset="0.903882" stop-color="#FF001F" stop-opacity="0.85"/>
</linearGradient>
<linearGradient id="paint9_linear_1_103" x1="65.82" y1="-16.3437" x2="-8.0181" y2="66.4375" gradientUnits="userSpaceOnUse">
<stop stop-color="#FF7A00"/>
<stop offset="0.903882" stop-color="#FF001F" stop-opacity="0.85"/>
</linearGradient>
<linearGradient id="paint10_linear_1_103" x1="54.4187" y1="-16.7629" x2="-5.33999" y2="50.2501" gradientUnits="userSpaceOnUse">
<stop stop-color="#FF7A00"/>
<stop offset="0.903882" stop-color="#FF001F" stop-opacity="0.85"/>
</linearGradient>
<linearGradient id="paint11_linear_1_103" x1="43.0184" y1="-17.2016" x2="-2.68596" y2="34.0627" gradientUnits="userSpaceOnUse">
<stop stop-color="#FF7A00"/>
<stop offset="0.903882" stop-color="#FF001F" stop-opacity="0.85"/>
</linearGradient>
<linearGradient id="paint12_linear_1_103" x1="183.513" y1="-47.8155" x2="11.3046" y2="23.8492" gradientUnits="userSpaceOnUse">
<stop stop-color="#FF7A00"/>
<stop offset="0.903882" stop-color="#FF001F" stop-opacity="0.85"/>
</linearGradient>
</defs>
</svg>
