<svg width="118" height="250" viewBox="0 0 118 250" fill="none" xmlns="http://www.w3.org/2000/svg">
<path fill-rule="evenodd" clip-rule="evenodd" d="M6.01949 249.578C-9.00462 249.578 -22.8825 247.25 -35.4026 242.647C-52.1725 236.476 -65.6977 226.512 -75.6609 213.04C-85.8533 199.25 -91.743 182.092 -92.6953 163.401C-93.6828 143.915 -89.5212 123.495 -80.3339 102.705C-72.0107 83.9244 -55.0821 56.2744 -32.493 35.0079C-2.44481 6.70545 30.1956 -4.45682 64.5288 1.83849C127.2 13.3358 119.564 60.2068 112.176 105.544C110.201 117.605 108.173 130.09 107.609 141.464C106.215 169.872 98.1568 194.842 84.3318 213.675C69.7485 233.495 49.2755 245.504 25.1523 248.396C18.5925 249.19 12.209 249.578 6.01949 249.578ZM46.119 1.71505C18.9099 1.71505 -7.08253 13.2476 -31.4174 36.1541C-53.8301 57.2619 -70.6352 84.7003 -78.8879 103.339C-96.945 144.162 -95.3051 183.803 -74.3912 212.105C-57.0395 235.576 -28.9486 248.008 5.8784 248.008C12.0326 248.008 18.3985 247.62 24.9583 246.827C72.0585 241.184 103.112 200.784 106.021 141.393C106.586 129.914 108.631 117.394 110.606 105.279C114.239 83.0251 117.995 60.0305 113.11 41.5501C107.644 20.9008 91.6498 8.41595 64.2291 3.39028C58.1454 2.27934 52.0969 1.71505 46.119 1.71505Z" fill="url(#paint0_linear_102_113)"/>
<path fill-rule="evenodd" clip-rule="evenodd" d="M0.799767 238.944C-13.4484 238.944 -26.5857 236.757 -38.4357 232.384C-54.3063 226.53 -67.1438 217.113 -76.5603 204.346C-86.2237 191.279 -91.796 175.039 -92.7129 157.334C-93.6475 138.871 -89.6975 119.527 -80.9864 99.8476C-75.608 87.6978 -66.2621 70.2931 -47.1645 59.3953C-27.3263 48.092 -1.12233 45.6232 32.9641 51.8833C66.1335 57.967 83.7851 65.4614 91.9848 76.9587C100.044 88.2444 99.0913 103.092 97.7688 123.636C97.5042 127.744 97.2397 132.012 97.0105 136.561C95.688 163.471 88.0701 187.118 74.9681 204.946C61.1431 223.726 41.7634 235.1 18.9098 237.833C12.7027 238.574 6.65423 238.944 0.799767 238.944ZM-0.610947 50.1199C-50.0212 50.1199 -68.7837 76.1828 -79.5404 100.482C-96.6453 139.118 -95.0935 176.626 -75.2906 203.412C-55.9815 229.545 -22.5828 241.219 18.7159 236.264C63.2768 230.938 92.6726 192.69 95.4411 136.473C95.6527 131.924 95.9348 127.656 96.1993 123.53C98.8091 82.6721 99.8848 65.7612 32.6819 53.4351C20.25 51.1426 9.21115 50.1199 -0.610947 50.1199Z" fill="url(#paint1_linear_102_113)"/>
<path fill-rule="evenodd" clip-rule="evenodd" d="M-4.40217 227.129C-17.5571 227.129 -29.7068 225.101 -40.6751 221.063C-55.3466 215.667 -67.2142 206.939 -75.9254 195.141C-84.8481 183.062 -90.0149 168.038 -90.8437 151.674C-91.7077 134.604 -88.0751 116.723 -80.0164 98.5252C-75.0437 87.2923 -66.4031 71.2102 -48.7339 61.1412C-30.3946 50.6667 -6.16554 48.3919 25.3287 54.1758C55.994 59.801 72.3231 66.7312 79.9057 77.3821C87.3472 87.8214 86.4831 101.541 85.2663 120.532C85.0195 124.341 84.7726 128.274 84.561 132.47C83.3443 157.352 76.2907 179.218 64.1762 195.688C51.4092 213.058 33.4755 223.567 12.3501 226.107C6.6014 226.794 1.01144 227.129 -4.40217 227.129ZM-5.68943 52.6769C-51.326 52.6769 -68.6426 76.7296 -78.5705 99.16C-94.3705 134.833 -92.9421 169.484 -74.6557 194.207C-56.8102 218.33 -25.9861 229.104 12.1561 224.537C53.2961 219.617 80.4347 184.314 82.9916 132.4C83.1856 128.185 83.4501 124.253 83.6793 120.444C86.0951 82.7251 87.0826 67.1015 25.0465 55.7276C13.5668 53.6292 3.3744 52.6769 -5.68943 52.6769Z" fill="url(#paint2_linear_102_113)"/>
<path fill-rule="evenodd" clip-rule="evenodd" d="M-9.5868 215.315C-21.6837 215.315 -32.8283 213.463 -42.8973 209.742C-56.3872 204.787 -67.2674 196.764 -75.2732 185.937C-83.4906 174.845 -88.2165 161.037 -88.9924 146.013C-89.7859 130.337 -86.4355 113.92 -79.0468 97.2026C-74.4797 86.9044 -66.5444 72.1271 -50.3212 62.8693C-33.4631 53.2588 -11.2268 51.1604 17.6929 56.4682C45.8543 61.635 60.8607 68.0184 67.8262 77.7876C74.6681 87.3981 73.8569 99.9888 72.746 117.446C72.5344 120.92 72.2875 124.535 72.1112 128.397C70.9826 151.233 64.511 171.3 53.384 186.43C41.6574 202.389 25.1873 212.052 5.77235 214.38C0.499809 215.015 -4.61403 215.315 -9.5868 215.315ZM-10.7683 55.2162C-52.6136 55.2162 -68.5018 77.2763 -77.6009 97.855C-92.0783 130.566 -90.7734 162.325 -74.0035 185.002C-60.1256 203.8 -37.6248 213.745 -9.71024 213.745C-4.77274 213.745 0.329346 213.434 5.59602 212.811C43.315 208.296 68.1965 175.92 70.5241 128.326C70.7181 124.447 70.9474 120.832 71.1766 117.341C73.3808 82.7604 74.2978 68.4593 17.4107 58.02C6.90092 56.0979 -2.4627 55.2162 -10.7683 55.2162Z" fill="url(#paint3_linear_102_113)"/>
<path fill-rule="evenodd" clip-rule="evenodd" d="M-14.7885 203.5C-25.7921 203.5 -35.9668 201.807 -45.1365 198.421C-57.4097 193.907 -67.3376 186.607 -74.638 176.732C-90.2264 155.641 -91.4785 126.175 -78.0767 95.8976C-73.9151 86.4988 -66.6675 73.0264 -51.8903 64.5974C-36.5311 55.851 -16.2697 53.9289 10.0753 58.7782C63.1711 68.5122 62.2541 82.8662 60.2439 114.343C60.0323 117.517 59.8206 120.797 59.6443 124.306C58.6392 145.114 52.7318 163.4 42.5923 177.19C31.9061 191.72 16.8997 200.52 -0.78717 202.653C-5.5836 203.218 -10.2566 203.5 -14.7885 203.5ZM-15.8642 57.7731C-53.9006 57.7731 -68.3427 77.8405 -76.6307 96.5325C-89.8032 126.281 -88.6041 155.165 -73.3684 175.797C-58.503 195.9 -32.7927 204.875 -0.98114 201.084C33.3168 196.975 55.9412 167.527 58.0749 124.235C58.2512 120.709 58.4628 117.429 58.6568 114.237C60.6671 82.8133 61.4959 69.8171 9.77555 60.33C0.217964 58.5666 -8.29922 57.7731 -15.8642 57.7731Z" fill="url(#paint4_linear_102_113)"/>
<path fill-rule="evenodd" clip-rule="evenodd" d="M-20.0967 191.703C-43.444 191.703 -62.3123 183.327 -74.0036 167.527C-88.0578 148.5 -89.204 121.908 -77.1072 94.5751C-73.3511 86.0931 -66.8089 73.9434 -53.4601 66.3255C-39.6174 58.4255 -21.331 56.715 2.43949 61.0706C50.3685 69.8523 49.5397 82.8309 47.7234 111.239C47.5471 114.113 47.3531 117.058 47.1944 120.232C46.2775 138.995 40.952 155.5 31.8176 167.932C22.1542 181.052 8.61137 189.005 -7.34734 190.909C-11.7206 191.438 -15.9703 191.703 -20.0967 191.703ZM-20.9431 60.33C-55.2058 60.33 -68.202 78.3871 -75.6612 95.2099C-87.5112 122.013 -86.4531 148.023 -72.7163 166.592C-59.3322 184.684 -36.1964 192.778 -7.54131 189.34C23.3357 185.654 43.7029 159.133 45.625 120.144C45.7837 116.97 45.96 114.008 46.154 111.133C47.9527 82.8661 48.7109 71.1572 2.15736 62.6224C-6.46564 61.0353 -14.1188 60.33 -20.9431 60.33Z" fill="url(#paint5_linear_102_113)"/>
<path fill-rule="evenodd" clip-rule="evenodd" d="M-25.2806 179.888C-46.1063 179.888 -62.929 172.411 -73.3507 158.322C-85.906 141.34 -86.9112 117.623 -76.1192 93.2524C-72.7864 85.7051 -66.9496 74.8602 -55.0467 68.0712C-42.6853 61.0176 -26.3739 59.4835 -5.19556 63.3629C37.5667 71.21 36.8261 82.7779 35.2214 108.153C35.0451 110.692 34.8864 113.337 34.7453 116.141C33.9165 132.876 29.173 147.583 21.0261 158.674C12.4031 170.383 0.323853 177.472 -13.9244 179.183C-17.8215 179.659 -21.6127 179.888 -25.2806 179.888ZM-26.0212 62.8692C-56.4927 62.8692 -68.0605 78.9337 -74.6732 93.9049C-85.236 117.728 -84.2837 140.864 -72.081 157.387C-60.1781 173.487 -39.5817 180.664 -14.1007 177.613C13.3553 174.333 31.4654 150.739 33.1582 116.071C33.2993 113.249 33.4756 110.604 33.6344 108.047C35.239 82.919 35.9091 72.5149 -5.47771 64.9147C-13.1485 63.504 -19.9552 62.8692 -26.0212 62.8692Z" fill="url(#paint6_linear_102_113)"/>
<path fill-rule="evenodd" clip-rule="evenodd" d="M-30.1126 168.038C-48.4343 168.038 -63.6347 161.372 -72.7162 149.117C-83.7374 134.181 -84.6368 113.355 -75.1497 91.9475C-72.2048 85.2995 -67.091 75.7772 -56.6164 69.7993C-45.7539 63.6098 -31.4352 62.252 -12.8138 65.6553C24.7818 72.5678 24.1293 82.7426 22.701 105.05C22.5599 107.254 22.4188 109.599 22.2954 112.068C21.5724 126.757 17.3931 139.683 10.2338 149.434C2.66881 159.715 -7.96444 165.957 -20.4845 167.456C-23.7821 167.844 -26.9914 168.038 -30.1126 168.038ZM-31.1002 65.4261C-57.7803 65.4261 -67.9022 79.4803 -73.7037 92.5823C-82.9439 113.461 -82.1151 133.722 -71.4466 148.165C-61.0249 162.272 -42.9854 168.549 -20.6609 165.887C3.35654 163.012 19.2271 142.363 20.7083 111.98C20.8318 109.511 20.9905 107.166 21.1315 104.944C22.5246 82.9542 23.1066 73.8551 -13.1135 67.2248C-19.8321 65.9904 -25.7923 65.4261 -31.1002 65.4261Z" fill="url(#paint7_linear_102_113)"/>
<path fill-rule="evenodd" clip-rule="evenodd" d="M-35.3496 156.223C-51.132 156.223 -64.2516 150.475 -72.0635 139.912C-81.5858 127.039 -82.3441 109.07 -74.1795 90.6251C-67.99 76.6237 -56.2811 61.388 -20.449 67.9655C11.9798 73.9081 11.4156 82.6898 10.1812 101.946C10.0754 103.851 9.9343 105.861 9.82849 107.977C8.52358 134.869 -5.61884 153.155 -27.0441 155.73C-29.8831 156.065 -32.6516 156.223 -35.3496 156.223ZM-36.1961 67.9831C-59.0849 67.9831 -67.7608 80.0271 -72.7336 91.2599C-80.6688 109.176 -79.9635 126.563 -70.7938 138.96C-61.8534 151.057 -46.3885 156.453 -27.238 154.16C-6.62396 151.691 6.97179 133.969 8.25907 107.906C8.36488 105.773 8.48831 103.762 8.61175 101.84C9.81086 83.0072 10.3222 75.213 -20.7311 69.5173C-26.515 68.4592 -31.6289 67.9831 -36.1961 67.9831Z" fill="url(#paint8_linear_102_113)"/>
<path d="M25.1525 248.396L24.9585 246.827C72.0587 241.184 103.112 200.785 106.022 141.394C106.586 129.914 108.632 117.394 110.606 105.279C114.239 83.0255 117.995 60.0308 113.111 41.5505C107.644 20.9011 91.65 8.41632 64.2293 3.39065L64.529 1.83887C127.2 13.3362 119.565 60.2072 112.176 105.544C110.201 117.606 108.173 130.09 107.609 141.464C106.216 169.873 98.1569 194.842 84.3319 213.675C69.7487 233.496 49.2757 245.504 25.1525 248.396Z" fill="url(#paint9_linear_102_113)"/>
<defs>
<linearGradient id="paint0_linear_102_113" x1="99.8877" y1="52.0807" x2="-145.181" y2="281.849" gradientUnits="userSpaceOnUse">
<stop stop-color="#FF7A00"/>
<stop offset="0.903882" stop-color="#FF001F" stop-opacity="0.85"/>
</linearGradient>
<linearGradient id="paint1_linear_102_113" x1="83.0038" y1="88.1766" x2="-103.26" y2="296.908" gradientUnits="userSpaceOnUse">
<stop stop-color="#FF7A00"/>
<stop offset="0.903882" stop-color="#FF001F" stop-opacity="0.85"/>
</linearGradient>
<linearGradient id="paint2_linear_102_113" x1="71.6075" y1="87.7335" x2="-100.609" y2="280.709" gradientUnits="userSpaceOnUse">
<stop stop-color="#FF7A00"/>
<stop offset="0.903882" stop-color="#FF001F" stop-opacity="0.85"/>
</linearGradient>
<linearGradient id="paint3_linear_102_113" x1="60.2017" y1="87.293" x2="-97.9622" y2="264.52" gradientUnits="userSpaceOnUse">
<stop stop-color="#FF7A00"/>
<stop offset="0.903882" stop-color="#FF001F" stop-opacity="0.85"/>
</linearGradient>
<linearGradient id="paint4_linear_102_113" x1="48.8047" y1="86.8562" x2="-95.2944" y2="248.402" gradientUnits="userSpaceOnUse">
<stop stop-color="#FF7A00"/>
<stop offset="0.903882" stop-color="#FF001F" stop-opacity="0.85"/>
</linearGradient>
<linearGradient id="paint5_linear_102_113" x1="37.4011" y1="86.4221" x2="-92.6624" y2="232.212" gradientUnits="userSpaceOnUse">
<stop stop-color="#FF7A00"/>
<stop offset="0.903882" stop-color="#FF001F" stop-opacity="0.85"/>
</linearGradient>
<linearGradient id="paint6_linear_102_113" x1="26.0078" y1="85.9823" x2="-90.0034" y2="216.018" gradientUnits="userSpaceOnUse">
<stop stop-color="#FF7A00"/>
<stop offset="0.903882" stop-color="#FF001F" stop-opacity="0.85"/>
</linearGradient>
<linearGradient id="paint7_linear_102_113" x1="14.6113" y1="85.5345" x2="-87.3096" y2="199.816" gradientUnits="userSpaceOnUse">
<stop stop-color="#FF7A00"/>
<stop offset="0.903882" stop-color="#FF001F" stop-opacity="0.85"/>
</linearGradient>
<linearGradient id="paint8_linear_102_113" x1="3.20859" y1="85.096" x2="-84.6591" y2="183.617" gradientUnits="userSpaceOnUse">
<stop stop-color="#FF7A00"/>
<stop offset="0.903882" stop-color="#FF001F" stop-opacity="0.85"/>
</linearGradient>
<linearGradient id="paint9_linear_102_113" x1="109.513" y1="53.1845" x2="-62.6952" y2="124.849" gradientUnits="userSpaceOnUse">
<stop stop-color="#FF7A00"/>
<stop offset="0.903882" stop-color="#FF001F" stop-opacity="0.85"/>
</linearGradient>
</defs>
</svg>
