<svg width="380" height="904" viewBox="0 0 380 904" fill="none" xmlns="http://www.w3.org/2000/svg">
<path fill-rule="evenodd" clip-rule="evenodd" d="M358.05 903.821C303.658 903.821 253.417 895.394 208.091 878.732C147.38 856.388 98.4151 820.319 62.3459 771.546C25.4468 721.623 4.12453 659.508 0.677205 591.838C-2.89779 521.296 12.1683 447.37 45.4285 372.103C75.5607 304.114 136.846 204.014 218.625 127.024C327.407 24.5622 445.573 -15.8481 569.868 6.94255C796.753 48.5658 769.111 218.251 742.362 382.381C735.212 426.047 727.87 471.246 725.828 512.422C720.784 615.267 691.61 705.664 641.56 773.844C588.765 845.599 514.647 889.074 427.315 899.543C403.567 902.416 380.457 903.821 358.05 903.821ZM503.22 6.49567C404.716 6.49567 310.617 48.2466 222.519 131.174C141.379 207.589 80.5401 306.923 50.6634 374.401C-14.7081 522.189 -8.77102 665.7 66.9424 768.162C129.76 853.132 231.456 898.139 357.539 898.139C379.819 898.139 402.865 896.735 426.613 893.862C597.128 873.433 709.549 727.177 720.082 512.167C722.125 470.607 729.53 425.281 736.68 381.424C749.831 300.859 763.429 217.612 745.745 150.709C725.955 75.9528 668.053 30.7546 568.783 12.5604C546.758 8.53853 524.862 6.49567 503.22 6.49567Z" fill="url(#paint0_linear_149_411)" fill-opacity="0.38"/>
<path fill-rule="evenodd" clip-rule="evenodd" d="M339.152 865.325C287.57 865.325 240.01 857.409 197.11 841.577C139.654 820.382 93.1793 786.292 59.0892 740.072C24.1052 692.767 3.93204 633.971 0.612393 569.877C-2.77109 503.037 11.5289 433.005 43.0655 361.761C62.5365 317.775 96.3713 254.766 165.509 215.313C237.328 174.392 332.194 165.455 455.595 188.118C575.677 210.142 639.58 237.274 669.265 278.897C698.44 319.754 694.992 373.507 690.204 447.88C689.247 462.754 688.289 478.203 687.459 494.674C682.671 592.093 655.093 677.701 607.66 742.243C557.61 810.232 487.451 851.408 404.715 861.303C382.244 863.984 360.347 865.325 339.152 865.325ZM334.045 181.734C155.167 181.734 87.2423 276.088 48.3003 364.059C-13.6238 503.931 -8.00592 639.717 63.6856 736.689C133.59 831.298 254.501 873.56 404.013 855.621C565.335 836.342 671.755 697.874 681.778 494.355C682.544 477.884 683.565 462.435 684.523 447.497C693.971 299.581 697.865 238.359 454.574 193.735C409.567 185.436 369.603 181.734 334.045 181.734Z" fill="url(#paint1_linear_149_411)" fill-opacity="0.38"/>
<path fill-rule="evenodd" clip-rule="evenodd" d="M320.319 822.552C272.695 822.552 228.71 815.211 189.002 800.591C135.888 781.057 92.9239 749.456 61.3873 706.748C29.0846 663.018 10.3797 608.627 7.37927 549.384C4.25114 487.587 17.402 422.854 46.5766 356.972C64.5793 316.307 95.8605 258.085 159.827 221.633C226.22 183.712 313.935 175.477 427.952 196.416C538.969 216.781 598.084 241.87 625.535 280.429C652.475 318.222 649.347 367.889 644.942 436.644C644.048 450.433 643.155 464.669 642.388 479.863C637.984 569.94 612.448 649.101 568.59 708.727C522.371 771.609 457.446 809.657 380.967 818.85C360.155 821.339 339.918 822.552 320.319 822.552ZM315.659 190.99C150.443 190.99 87.7529 278.067 51.8114 359.271C-5.38861 488.417 -0.217615 613.862 65.9837 703.364C130.589 790.696 242.18 829.702 380.264 813.168C529.201 795.357 627.45 667.55 636.707 479.608C637.409 464.35 638.367 450.114 639.197 436.325C647.943 299.772 651.518 243.211 426.931 202.034C385.372 194.437 348.473 190.99 315.659 190.99Z" fill="url(#paint2_linear_149_411)" fill-opacity="0.38"/>
<path fill-rule="evenodd" clip-rule="evenodd" d="M301.551 779.78C257.757 779.78 217.41 773.077 180.958 759.607C132.121 741.668 92.7323 712.621 63.7493 673.424C34.0002 633.269 16.8913 583.283 14.0823 528.891C11.2096 472.138 23.3391 412.704 50.0877 352.184C66.6221 314.902 95.3498 261.405 154.082 227.889C215.112 193.097 295.614 185.5 400.31 204.716C502.261 223.421 556.589 246.53 581.805 281.897C606.575 316.69 603.638 362.271 599.616 425.472C598.85 438.048 597.956 451.135 597.318 465.116C593.232 547.788 569.803 620.437 529.521 675.211C487.068 732.986 427.442 767.97 357.155 776.396C338.067 778.695 319.553 779.78 301.551 779.78ZM297.273 200.183C145.783 200.183 88.2636 280.046 55.3225 354.546C2.91046 472.968 7.63458 587.943 68.3457 670.04C118.587 738.093 200.046 774.098 301.104 774.098C318.979 774.098 337.45 772.97 356.516 770.715C493.069 754.372 583.146 637.163 591.573 464.861C592.275 450.816 593.105 437.729 593.935 425.089C601.915 299.9 605.234 248.126 399.289 210.333C361.24 203.375 327.342 200.183 297.273 200.183Z" fill="url(#paint3_linear_149_411)" fill-opacity="0.38"/>
<path fill-rule="evenodd" clip-rule="evenodd" d="M282.718 737.008C242.883 737.008 206.047 730.879 172.851 718.622C128.419 702.279 92.4772 675.85 66.0477 640.1C9.61382 563.748 5.08123 457.073 53.5991 347.461C68.6652 313.434 94.9031 264.661 148.4 234.146C204.004 202.481 277.356 195.523 372.732 213.079C564.952 248.318 561.632 300.283 554.354 414.236C553.588 425.727 552.822 437.602 552.184 450.306C548.545 525.636 527.159 591.837 490.451 641.76C451.765 694.363 397.437 726.219 333.407 733.944C316.042 735.986 299.125 737.008 282.718 737.008ZM278.824 209.44C141.123 209.44 88.8383 282.089 58.8339 349.759C11.1459 457.456 15.487 562.024 70.6441 636.716C124.461 709.493 217.538 741.987 332.704 728.262C456.872 713.387 538.778 606.776 546.502 450.05C547.141 437.282 547.907 425.408 548.609 413.853C555.887 300.092 558.887 253.042 371.646 218.697C337.045 212.313 306.211 209.44 278.824 209.44Z" fill="url(#paint4_linear_149_411)" fill-opacity="0.38"/>
<path fill-rule="evenodd" clip-rule="evenodd" d="M263.503 694.299C178.979 694.299 110.671 663.975 68.346 606.775C17.4661 537.893 13.3165 441.623 57.1103 342.672C70.7081 311.966 94.3924 267.98 142.719 240.402C192.833 211.802 259.034 205.609 345.089 221.378C518.604 253.17 515.604 300.155 509.029 403C508.39 413.406 507.688 424.067 507.113 435.558C503.794 503.483 484.514 563.237 451.446 608.244C416.462 655.74 367.433 684.532 309.658 691.426C293.826 693.341 278.441 694.299 263.503 694.299ZM260.438 218.696C136.399 218.696 89.3491 284.068 62.3451 344.971C19.4451 442.006 23.2755 536.169 73.0063 603.392C121.46 668.891 205.217 698.193 308.956 685.745C420.739 672.402 494.473 576.388 501.432 435.239C502.006 423.748 502.645 413.023 503.347 402.617C509.859 300.283 512.604 257.894 344.068 226.996C312.85 221.25 285.144 218.696 260.438 218.696Z" fill="url(#paint5_linear_149_411)" fill-opacity="0.38"/>
<path fill-rule="evenodd" clip-rule="evenodd" d="M244.734 651.527C169.34 651.527 108.437 624.459 70.708 573.451C25.2544 511.974 21.6156 426.11 60.6852 337.884C72.7509 310.561 93.8817 271.3 136.973 246.722C181.725 221.186 240.776 215.632 317.447 229.677C472.257 258.085 469.576 299.964 463.766 391.829C463.128 401.022 462.553 410.597 462.043 420.748C459.042 481.331 441.87 534.573 412.376 574.728C381.158 617.118 337.428 642.781 285.846 648.973C271.738 650.697 258.012 651.527 244.734 651.527ZM242.053 227.889C131.738 227.889 89.8598 286.047 65.9201 340.247C27.6803 426.493 31.1277 510.251 75.3044 570.068C118.396 628.353 192.96 654.336 285.208 643.292C384.606 631.418 450.169 546.001 456.297 420.493C456.808 410.278 457.446 400.702 458.021 391.446C463.83 300.475 466.256 262.809 316.425 235.295C288.655 230.188 264.013 227.889 242.053 227.889Z" fill="url(#paint6_linear_149_411)" fill-opacity="0.38"/>
<path fill-rule="evenodd" clip-rule="evenodd" d="M227.242 608.627C160.913 608.627 105.883 584.496 73.0063 540.127C33.1067 486.056 29.8509 410.661 64.1964 333.16C74.8576 309.093 93.371 274.62 131.292 252.978C170.617 230.571 222.454 225.655 289.868 237.976C425.974 263.001 423.612 299.836 418.441 380.593C417.93 388.573 417.419 397.064 416.972 406.001C414.355 459.179 399.225 505.973 373.306 541.277C345.919 578.495 307.424 601.094 262.098 606.52C250.16 607.925 238.542 608.627 227.242 608.627ZM223.667 237.146C127.078 237.146 90.4344 288.026 69.4313 335.459C35.9795 411.044 38.9799 484.396 77.6027 536.68C115.332 587.752 180.639 610.478 261.46 600.839C348.409 590.433 405.864 515.677 411.227 405.682C411.674 396.744 412.248 388.254 412.759 380.21C417.802 300.602 419.909 267.661 288.783 243.658C264.46 239.189 242.883 237.146 223.667 237.146Z" fill="url(#paint7_linear_149_411)" fill-opacity="0.38"/>
<path fill-rule="evenodd" clip-rule="evenodd" d="M208.281 565.855C151.145 565.855 103.649 545.043 75.3681 506.803C40.8949 460.201 38.1498 395.148 67.7074 328.372C90.115 277.684 132.504 222.527 262.226 246.339C379.626 267.853 377.583 299.645 373.115 369.357C372.731 376.252 372.221 383.53 371.838 391.19C367.114 488.545 315.914 554.746 238.35 564.067C228.072 565.28 218.049 565.855 208.281 565.855ZM205.217 246.403C122.354 246.403 90.9449 290.005 72.9422 330.671C44.2145 395.531 46.7681 458.477 79.9645 503.356C112.331 547.15 168.318 566.684 237.648 558.385C312.276 549.448 361.496 485.289 366.156 390.935C366.539 383.21 366.986 375.933 367.433 368.974C371.774 300.794 373.625 272.577 261.204 251.957C240.265 248.126 221.752 246.403 205.217 246.403Z" fill="url(#paint8_linear_149_411)" fill-opacity="0.38"/>
<path fill-rule="evenodd" clip-rule="evenodd" d="M189.321 523.146C141.378 523.146 101.478 505.654 77.6664 473.415C48.7472 434.282 46.3851 379.699 71.2186 323.648C90.115 281.004 125.674 234.657 234.583 254.638C333.279 272.769 331.619 299.517 327.853 358.122C327.469 363.931 327.086 369.996 326.767 376.444C322.745 458.158 279.782 513.762 214.602 521.55C205.983 522.636 197.557 523.146 189.321 523.146ZM186.832 255.596C117.694 255.596 91.4557 291.984 76.4534 325.947C52.5137 380.082 54.6204 432.622 82.2628 470.032C109.267 506.548 155.997 522.827 213.899 515.932C276.143 508.463 317.191 454.902 321.086 376.124C321.405 369.677 321.788 363.548 322.107 357.802C325.874 299.326 327.278 277.493 233.562 260.256C216.134 257.064 200.621 255.596 186.832 255.596Z" fill="url(#paint9_linear_149_411)" fill-opacity="0.38"/>
<path fill-rule="evenodd" clip-rule="evenodd" d="M170.425 480.374C131.547 480.374 99.3078 466.202 80.0283 440.091C56.5993 408.427 54.6842 364.25 74.7297 318.861C88.8382 287.005 117.885 246.595 206.941 262.937C286.995 277.62 285.591 299.326 282.527 346.95C282.271 351.546 281.952 356.462 281.697 361.633C278.441 427.77 243.648 472.777 190.789 479.097C183.81 479.948 177.022 480.374 170.425 480.374ZM168.446 264.853C113.033 264.853 92.0301 294.027 79.9645 321.159C60.7489 364.633 62.4087 406.703 84.6248 436.708C106.202 465.946 143.676 478.969 190.151 473.415C240.01 467.478 272.887 424.515 275.951 361.378C276.206 356.143 276.526 351.227 276.845 346.567C279.845 299.836 280.931 282.345 205.919 268.619C191.939 266.002 179.49 264.853 168.446 264.853Z" fill="url(#paint10_linear_149_411)" fill-opacity="0.38"/>
<path fill-rule="evenodd" clip-rule="evenodd" d="M151.464 437.601C121.779 437.601 97.0734 426.749 82.3265 406.767C64.3877 382.508 62.9194 348.737 78.2408 314.072C89.0296 289.75 111.246 258.787 179.362 271.3C240.648 282.536 239.499 300.283 237.264 335.714C237.009 339.225 236.818 342.928 236.626 346.886C234.136 397.383 207.451 431.792 167.041 436.644C161.721 437.282 156.529 437.601 151.464 437.601ZM149.996 274.109C108.309 274.109 92.5408 296.006 83.4756 316.37C68.9841 349.12 70.2609 380.848 86.9229 403.383C103.202 425.344 131.419 435.175 166.339 430.962C203.813 426.493 228.582 394.127 230.88 346.566C231.072 342.608 231.327 338.906 231.519 335.331C233.753 300.347 234.647 287.26 178.277 276.918C167.743 275.003 158.359 274.109 149.996 274.109Z" fill="url(#paint11_linear_149_411)" fill-opacity="0.38"/>
<defs>
<linearGradient id="paint0_linear_149_411" x1="697.876" y1="188.832" x2="-189.336" y2="1020.65" gradientUnits="userSpaceOnUse">
<stop stop-color="#FF7A00"/>
<stop offset="0.903882" stop-color="#FF001F" stop-opacity="0.85"/>
</linearGradient>
<linearGradient id="paint1_linear_149_411" x1="636.751" y1="319.509" x2="-37.5689" y2="1075.17" gradientUnits="userSpaceOnUse">
<stop stop-color="#FF7A00"/>
<stop offset="0.903882" stop-color="#FF001F" stop-opacity="0.85"/>
</linearGradient>
<linearGradient id="paint2_linear_149_411" x1="595.493" y1="317.904" x2="-27.9721" y2="1016.52" gradientUnits="userSpaceOnUse">
<stop stop-color="#FF7A00"/>
<stop offset="0.903882" stop-color="#FF001F" stop-opacity="0.85"/>
</linearGradient>
<linearGradient id="paint3_linear_149_411" x1="554.203" y1="316.309" x2="-18.3907" y2="957.917" gradientUnits="userSpaceOnUse">
<stop stop-color="#FF7A00"/>
<stop offset="0.903882" stop-color="#FF001F" stop-opacity="0.85"/>
</linearGradient>
<linearGradient id="paint4_linear_149_411" x1="512.942" y1="314.728" x2="-8.73327" y2="899.565" gradientUnits="userSpaceOnUse">
<stop stop-color="#FF7A00"/>
<stop offset="0.903882" stop-color="#FF001F" stop-opacity="0.85"/>
</linearGradient>
<linearGradient id="paint5_linear_149_411" x1="471.659" y1="313.157" x2="0.796352" y2="840.953" gradientUnits="userSpaceOnUse">
<stop stop-color="#FF7A00"/>
<stop offset="0.903882" stop-color="#FF001F" stop-opacity="0.85"/>
</linearGradient>
<linearGradient id="paint6_linear_149_411" x1="430.411" y1="311.565" x2="10.421" y2="782.328" gradientUnits="userSpaceOnUse">
<stop stop-color="#FF7A00"/>
<stop offset="0.903882" stop-color="#FF001F" stop-opacity="0.85"/>
</linearGradient>
<linearGradient id="paint7_linear_149_411" x1="389.154" y1="309.944" x2="20.1744" y2="723.671" gradientUnits="userSpaceOnUse">
<stop stop-color="#FF7A00"/>
<stop offset="0.903882" stop-color="#FF001F" stop-opacity="0.85"/>
</linearGradient>
<linearGradient id="paint8_linear_149_411" x1="347.872" y1="308.356" x2="29.7686" y2="665.026" gradientUnits="userSpaceOnUse">
<stop stop-color="#FF7A00"/>
<stop offset="0.903882" stop-color="#FF001F" stop-opacity="0.85"/>
</linearGradient>
<linearGradient id="paint9_linear_149_411" x1="306.643" y1="306.764" x2="39.3304" y2="606.453" gradientUnits="userSpaceOnUse">
<stop stop-color="#FF7A00"/>
<stop offset="0.903882" stop-color="#FF001F" stop-opacity="0.85"/>
</linearGradient>
<linearGradient id="paint10_linear_149_411" x1="265.368" y1="305.246" x2="49.0258" y2="547.85" gradientUnits="userSpaceOnUse">
<stop stop-color="#FF7A00"/>
<stop offset="0.903882" stop-color="#FF001F" stop-opacity="0.85"/>
</linearGradient>
<linearGradient id="paint11_linear_149_411" x1="224.095" y1="303.658" x2="58.6339" y2="489.248" gradientUnits="userSpaceOnUse">
<stop stop-color="#FF7A00"/>
<stop offset="0.903882" stop-color="#FF001F" stop-opacity="0.85"/>
</linearGradient>
</defs>
</svg>
