<svg width="92" height="250" viewBox="0 0 92 250" fill="none" xmlns="http://www.w3.org/2000/svg">
<path fill-rule="evenodd" clip-rule="evenodd" d="M98.8667 249.444C83.8425 249.444 69.9646 247.116 57.4445 242.513C40.6747 236.342 27.1495 226.378 17.1863 212.906C6.99387 199.116 1.10414 181.958 0.151912 163.267C-0.835588 143.781 3.32602 123.361 12.5133 102.571C20.8365 83.7904 37.7651 56.1404 60.3541 34.8739C90.4024 6.57142 123.043 -4.59085 157.376 1.70446C220.047 13.2018 212.412 60.0728 205.023 105.41C203.048 117.471 201.02 129.956 200.456 141.33C199.063 169.738 191.004 194.708 177.179 213.541C162.596 233.361 142.123 245.37 117.999 248.262C111.44 249.056 105.056 249.444 98.8667 249.444ZM138.966 1.58102C111.757 1.58102 85.7646 13.1136 61.4298 36.0201C39.0171 57.1279 22.212 84.5663 13.9593 103.205C-4.09787 144.028 -2.45791 183.669 18.4559 211.971C35.8077 235.442 63.8986 247.874 98.7256 247.874C104.88 247.874 111.246 247.486 117.805 246.693C164.906 241.05 195.959 200.65 198.869 141.259C199.433 129.78 201.478 117.26 203.453 105.145C207.086 82.8911 210.842 59.8964 205.957 41.4161C200.491 20.7667 184.497 8.28191 157.076 3.25624C150.993 2.14531 144.944 1.58102 138.966 1.58102Z" fill="url(#paint0_linear_138_60)"/>
<path fill-rule="evenodd" clip-rule="evenodd" d="M93.6469 238.81C79.3987 238.81 66.2615 236.624 54.4115 232.25C38.5409 226.396 25.7034 216.979 16.2869 204.212C6.62351 191.146 1.05119 174.905 0.134225 157.2C-0.800373 138.738 3.14963 119.393 11.8608 99.7138C17.2391 87.564 26.5851 70.1593 45.6827 59.2615C65.5208 47.9582 91.7248 45.4894 125.811 51.7495C158.981 57.8332 176.632 65.3276 184.832 76.8249C192.891 88.1106 191.938 102.958 190.616 123.502C190.351 127.611 190.087 131.878 189.858 136.428C188.535 163.337 180.917 186.984 167.815 204.812C153.99 223.592 134.611 234.966 111.757 237.699C105.55 238.44 99.5014 238.81 93.6469 238.81ZM92.2362 49.9861C42.826 49.9861 24.0635 76.049 13.3068 100.349C-3.79815 138.985 -2.24636 176.492 17.5565 203.278C36.8657 229.411 70.2644 241.085 111.563 236.13C156.124 230.804 185.52 192.556 188.288 136.339C188.5 131.79 188.782 127.522 189.046 123.396C191.656 82.5383 192.732 65.6274 125.529 53.3013C113.097 51.0089 102.058 49.9861 92.2362 49.9861Z" fill="url(#paint1_linear_138_60)"/>
<path fill-rule="evenodd" clip-rule="evenodd" d="M88.445 226.995C75.2901 226.995 63.1403 224.967 52.172 220.929C37.5006 215.533 25.633 206.804 16.9218 195.007C7.99903 182.928 2.83229 167.904 2.0035 151.54C1.13943 134.47 4.77203 116.589 12.8307 98.3909C17.8035 87.1581 26.4441 71.0759 44.1133 61.0069C62.4526 50.5324 86.6816 48.2576 118.176 54.0415C148.841 59.6668 165.17 66.5969 172.753 77.2478C180.194 87.6871 179.33 101.406 178.114 120.398C177.867 124.207 177.62 128.139 177.408 132.336C176.191 157.218 169.138 179.084 157.023 195.554C144.256 212.923 126.323 223.433 105.197 225.972C99.4486 226.66 93.8586 226.995 88.445 226.995ZM87.1577 52.5426C41.5211 52.5426 24.2046 76.5953 14.2767 99.0257C-1.52329 134.699 -0.0949441 169.35 18.1914 194.073C36.037 218.196 66.8611 228.97 105.003 224.403C146.143 219.483 173.282 184.18 175.839 132.266C176.033 128.051 176.297 124.119 176.526 120.31C178.942 82.5909 179.93 66.9672 117.894 55.5933C106.414 53.4949 96.2216 52.5426 87.1577 52.5426Z" fill="url(#paint2_linear_138_60)"/>
<path fill-rule="evenodd" clip-rule="evenodd" d="M83.2604 215.18C71.1635 215.18 60.0188 213.329 49.9499 209.608C36.4599 204.653 25.5798 196.629 17.574 185.802C9.35656 174.711 4.63067 160.903 3.85478 145.879C3.06125 130.202 6.4117 113.785 13.8003 97.0683C18.3675 86.7701 26.3028 71.9929 42.526 62.7351C59.384 53.1246 81.6204 51.0261 110.54 56.3339C138.701 61.5007 153.708 67.8842 160.673 77.6534C167.515 87.2639 166.704 99.8545 165.593 117.312C165.382 120.786 165.135 124.401 164.958 128.263C163.83 151.099 157.358 171.166 146.231 186.296C134.505 202.255 118.034 211.918 98.6195 214.246C93.347 214.881 88.2331 215.18 83.2604 215.18ZM82.0789 55.0819C40.2336 55.0819 24.3454 77.142 15.2463 97.7208C0.768838 130.432 2.07375 162.19 18.8436 184.868C32.7215 203.665 55.2224 213.611 83.1369 213.611C88.0744 213.611 93.1765 213.299 98.4432 212.676C136.162 208.162 161.044 175.786 163.371 128.192C163.565 124.313 163.795 120.698 164.024 117.206C166.228 82.6261 167.145 68.325 110.258 57.8857C99.7481 55.9636 90.3845 55.0819 82.0789 55.0819Z" fill="url(#paint3_linear_138_60)"/>
<path fill-rule="evenodd" clip-rule="evenodd" d="M78.0587 203.366C67.0551 203.366 56.8803 201.673 47.7107 198.287C35.4375 193.773 25.5096 186.473 18.2091 176.598C2.62073 155.507 1.36872 126.041 14.7705 95.7636C18.9321 86.3647 26.1797 72.8924 40.9569 64.4634C56.316 55.717 76.5774 53.7949 102.923 58.6442C156.018 68.3781 155.101 82.7321 153.091 114.209C152.879 117.383 152.668 120.663 152.491 124.172C151.486 144.98 145.579 163.266 135.439 177.056C124.753 191.586 109.747 200.386 92.06 202.519C87.2636 203.084 82.5906 203.366 78.0587 203.366ZM76.983 57.6391C38.9466 57.6391 24.5044 77.7065 16.2165 96.3984C3.04393 126.147 4.24304 155.031 19.4788 175.663C34.3442 195.766 60.0544 204.741 91.866 200.95C126.164 196.841 148.788 167.393 150.922 124.101C151.098 120.575 151.31 117.295 151.504 114.103C153.514 82.6792 154.343 69.683 102.623 60.196C93.0651 58.4326 84.5479 57.6391 76.983 57.6391Z" fill="url(#paint4_linear_138_60)"/>
<path fill-rule="evenodd" clip-rule="evenodd" d="M72.7505 191.569C49.4032 191.569 30.5349 183.193 18.8436 167.393C4.78935 148.366 3.64314 121.774 15.74 94.441C19.496 85.9591 26.0382 73.8093 39.3871 66.1915C53.2297 58.2915 71.5161 56.581 95.2867 60.9366C143.216 69.7183 142.387 82.6968 140.571 111.105C140.394 113.979 140.2 116.924 140.042 120.098C139.125 138.861 133.799 155.366 124.665 167.798C115.001 180.918 101.459 188.871 85.4998 190.775C81.1266 191.304 76.8768 191.569 72.7505 191.569ZM71.9041 60.1959C37.6414 60.1959 24.6451 78.2531 17.186 95.0758C5.33599 121.879 6.39403 147.889 20.1309 166.458C33.515 184.55 56.6507 192.644 85.3059 189.206C116.183 185.52 136.55 158.999 138.472 120.01C138.631 116.836 138.807 113.874 139.001 110.999C140.8 82.7321 141.558 71.0232 95.0045 62.4883C86.3815 60.9013 78.7284 60.1959 71.9041 60.1959Z" fill="url(#paint5_linear_138_60)"/>
<path fill-rule="evenodd" clip-rule="evenodd" d="M67.5666 179.754C46.7409 179.754 29.9181 172.277 19.4965 158.188C6.94112 141.206 5.93599 117.489 16.728 93.1186C20.0608 85.5713 25.8976 74.7265 37.8005 67.9374C50.1619 60.8838 66.4733 59.3497 87.6516 63.2291C130.414 71.0762 129.673 82.6441 128.069 108.019C127.892 110.559 127.734 113.204 127.592 116.007C126.764 132.742 122.02 147.449 113.873 158.541C105.25 170.249 93.171 177.338 78.9228 179.049C75.0257 179.525 71.2344 179.754 67.5666 179.754ZM66.8259 62.7354C36.3545 62.7354 24.7867 78.7999 18.1739 93.7711C7.61121 117.595 8.56345 140.73 20.7661 157.253C32.669 173.353 53.2654 180.53 78.7465 177.479C106.202 174.199 124.313 150.605 126.005 115.937C126.146 113.116 126.323 110.47 126.482 107.914C128.086 82.7852 128.756 72.3811 87.3695 64.7809C79.6987 63.3702 72.892 62.7354 66.8259 62.7354Z" fill="url(#paint6_linear_138_60)"/>
<path fill-rule="evenodd" clip-rule="evenodd" d="M62.7345 167.904C44.4129 167.904 29.2124 161.239 20.1309 148.983C9.10974 134.047 8.21041 113.221 17.6975 91.8137C20.6423 85.1658 25.7562 75.6434 36.2307 69.6655C47.0932 63.476 61.412 62.1182 80.0334 65.5216C117.629 72.4341 116.976 82.6088 115.548 104.916C115.407 107.12 115.266 109.465 115.143 111.934C114.42 126.623 110.24 139.549 103.081 149.3C95.516 159.581 84.8827 165.823 72.3626 167.322C69.0651 167.71 65.8557 167.904 62.7345 167.904ZM61.747 65.2923C35.0669 65.2923 24.945 79.3466 19.1435 92.4486C9.90327 113.327 10.7321 133.589 21.4006 148.031C31.8222 162.138 49.8618 168.416 72.1863 165.753C96.2037 162.878 112.074 142.229 113.555 111.846C113.679 109.377 113.838 107.032 113.979 104.81C115.372 82.8204 115.954 73.7213 79.7336 67.091C73.0151 65.8566 67.0548 65.2923 61.747 65.2923Z" fill="url(#paint7_linear_138_60)"/>
<path fill-rule="evenodd" clip-rule="evenodd" d="M57.4975 156.089C41.7152 156.089 28.5955 150.34 20.7837 139.778C11.2614 126.905 10.5031 108.936 18.6676 90.4908C24.8571 76.4895 36.5661 61.2537 72.3982 67.8312C104.827 73.7738 104.263 82.5555 103.028 101.812C102.923 103.716 102.781 105.727 102.676 107.843C101.371 134.734 87.2283 153.021 65.8031 155.595C62.9641 155.93 60.1955 156.089 57.4975 156.089ZM56.6511 67.8488C33.7623 67.8488 25.0864 79.8928 20.1136 91.1256C12.1783 109.042 12.8837 126.429 22.0533 138.825C30.9937 150.922 46.4587 156.318 65.6091 154.026C86.2232 151.557 99.819 133.835 101.106 107.772C101.212 105.638 101.335 103.628 101.459 101.706C102.658 82.8729 103.169 75.0787 72.1161 69.383C66.3321 68.3249 61.2183 67.8488 56.6511 67.8488Z" fill="url(#paint8_linear_138_60)"/>
<path fill-rule="evenodd" clip-rule="evenodd" d="M52.2599 144.292C39.0168 144.292 27.9956 139.46 21.4182 130.555C13.43 119.746 12.7775 104.669 19.6371 89.1861C24.8568 77.4067 34.6789 64.6044 64.7624 70.1239C92.0244 75.1319 91.5659 82.5205 90.5255 98.7085C90.4197 100.313 90.3139 101.988 90.2258 103.769C89.1148 126.341 77.2472 141.7 59.2429 143.851C56.8624 144.151 54.5347 144.292 52.2599 144.292ZM51.5722 70.3884C32.4746 70.3884 25.2271 80.4397 21.0831 89.8209C14.4704 104.775 15.0523 119.287 22.6878 129.621C30.147 139.707 43.055 144.204 59.049 142.3C76.2421 140.236 87.5807 125.442 88.6563 103.681C88.7445 101.9 88.8503 100.207 88.9385 98.6203C89.9789 82.4676 90.3668 76.4368 64.4802 71.6756C59.6662 70.7939 55.3811 70.3884 51.5722 70.3884Z" fill="url(#paint9_linear_138_60)"/>
<path fill-rule="evenodd" clip-rule="evenodd" d="M47.0404 132.477C36.3013 132.477 27.3962 128.563 22.0707 121.35C15.5991 112.604 15.0701 100.401 20.6071 87.8636C24.5042 79.0643 32.5277 67.902 57.127 72.4163C79.2399 76.4721 78.852 82.4676 78.0056 95.6225C77.935 96.8922 77.8469 98.25 77.7763 99.6783C76.877 117.947 67.2665 130.379 52.6656 132.125C50.7376 132.36 48.8626 132.477 47.0404 132.477ZM46.4937 72.9453C31.1875 72.9453 25.3859 81.004 22.0531 88.4984C16.7453 100.507 17.2038 112.128 23.3404 120.416C29.3007 128.492 39.6518 132.089 52.4893 130.555C66.2614 128.915 75.3428 117.048 76.1893 99.6078C76.2598 98.1618 76.348 96.804 76.4361 95.5167C77.2649 82.6087 77.5647 77.777 56.8449 73.9857C52.983 73.2627 49.5444 72.9453 46.4937 72.9453Z" fill="url(#paint10_linear_138_60)"/>
<path fill-rule="evenodd" clip-rule="evenodd" d="M41.8034 120.663C33.6037 120.663 26.7793 117.665 22.7059 112.145C17.7508 105.444 17.3452 96.1161 21.5773 86.5409C24.5574 79.8223 30.6941 71.2699 49.5095 74.7261C66.438 77.8297 66.1206 82.7319 65.5034 92.5188C65.4329 93.4886 65.38 94.5114 65.3271 95.6047C64.6394 109.553 57.2684 119.058 46.1061 120.398C44.6366 120.574 43.2024 120.663 41.8034 120.663ZM41.3979 75.502C29.8829 75.502 25.5273 81.5505 23.0233 87.1757C19.0204 96.2219 19.3731 104.986 23.9755 111.211C28.4722 117.277 36.2664 119.992 45.9121 118.829C56.2633 117.594 63.1052 108.654 63.74 95.5165C63.7929 94.4232 63.8635 93.4005 63.9164 92.413C64.5336 82.7496 64.7804 79.1346 49.2097 76.2779C46.3001 75.7489 43.7079 75.502 41.3979 75.502Z" fill="url(#paint11_linear_138_60)"/>
<defs>
<linearGradient id="paint0_linear_138_60" x1="192.735" y1="51.9466" x2="-52.3343" y2="281.715" gradientUnits="userSpaceOnUse">
<stop stop-color="#FF7A00"/>
<stop offset="0.903882" stop-color="#FF001F" stop-opacity="0.85"/>
</linearGradient>
<linearGradient id="paint1_linear_138_60" x1="175.851" y1="88.0428" x2="-10.4124" y2="296.774" gradientUnits="userSpaceOnUse">
<stop stop-color="#FF7A00"/>
<stop offset="0.903882" stop-color="#FF001F" stop-opacity="0.85"/>
</linearGradient>
<linearGradient id="paint2_linear_138_60" x1="164.455" y1="87.5992" x2="-7.76138" y2="280.575" gradientUnits="userSpaceOnUse">
<stop stop-color="#FF7A00"/>
<stop offset="0.903882" stop-color="#FF001F" stop-opacity="0.85"/>
</linearGradient>
<linearGradient id="paint3_linear_138_60" x1="153.049" y1="87.1587" x2="-5.11504" y2="264.386" gradientUnits="userSpaceOnUse">
<stop stop-color="#FF7A00"/>
<stop offset="0.903882" stop-color="#FF001F" stop-opacity="0.85"/>
</linearGradient>
<linearGradient id="paint4_linear_138_60" x1="141.652" y1="86.7222" x2="-2.44719" y2="248.268" gradientUnits="userSpaceOnUse">
<stop stop-color="#FF7A00"/>
<stop offset="0.903882" stop-color="#FF001F" stop-opacity="0.85"/>
</linearGradient>
<linearGradient id="paint5_linear_138_60" x1="130.248" y1="86.2881" x2="0.184765" y2="232.078" gradientUnits="userSpaceOnUse">
<stop stop-color="#FF7A00"/>
<stop offset="0.903882" stop-color="#FF001F" stop-opacity="0.85"/>
</linearGradient>
<linearGradient id="paint6_linear_138_60" x1="118.855" y1="85.8485" x2="2.8438" y2="215.885" gradientUnits="userSpaceOnUse">
<stop stop-color="#FF7A00"/>
<stop offset="0.903882" stop-color="#FF001F" stop-opacity="0.85"/>
</linearGradient>
<linearGradient id="paint7_linear_138_60" x1="107.458" y1="85.4007" x2="5.53754" y2="199.682" gradientUnits="userSpaceOnUse">
<stop stop-color="#FF7A00"/>
<stop offset="0.903882" stop-color="#FF001F" stop-opacity="0.85"/>
</linearGradient>
<linearGradient id="paint8_linear_138_60" x1="96.0558" y1="84.9617" x2="8.18804" y2="183.482" gradientUnits="userSpaceOnUse">
<stop stop-color="#FF7A00"/>
<stop offset="0.903882" stop-color="#FF001F" stop-opacity="0.85"/>
</linearGradient>
<linearGradient id="paint9_linear_138_60" x1="84.667" y1="84.5222" x2="10.8289" y2="167.304" gradientUnits="userSpaceOnUse">
<stop stop-color="#FF7A00"/>
<stop offset="0.903882" stop-color="#FF001F" stop-opacity="0.85"/>
</linearGradient>
<linearGradient id="paint10_linear_138_60" x1="73.2658" y1="84.1031" x2="13.5071" y2="151.116" gradientUnits="userSpaceOnUse">
<stop stop-color="#FF7A00"/>
<stop offset="0.903882" stop-color="#FF001F" stop-opacity="0.85"/>
</linearGradient>
<linearGradient id="paint11_linear_138_60" x1="61.8658" y1="83.6641" x2="16.1614" y2="134.928" gradientUnits="userSpaceOnUse">
<stop stop-color="#FF7A00"/>
<stop offset="0.903882" stop-color="#FF001F" stop-opacity="0.85"/>
</linearGradient>
</defs>
</svg>
